<svg xmlns="http://www.w3.org/2000/svg" viewBox="11 20 62 62"><defs><mask id="f3" maskUnits="userSpaceOnUse" x="0" y="0" width="313" height="113"><rect width="313" height="113" fill="#fff"/><path transform="translate(29 68.5) rotate(-55.92)" d="M0 0C23.83 -10.18 45.40 -9.36 56.75 0C46.53 6.51 24.97 7.07 0 0Z" fill="#000" stroke="#000" stroke-width="1.8" stroke-linejoin="round"/><path transform="translate(26.6 67.5) rotate(-89.65)" d="M0 0C13.65 -7.19 26.00 -6.61 32.50 0C26.65 6.61 14.30 7.19 0 0Z" fill="#000" stroke="#000" stroke-width="1.8" stroke-linejoin="round"/><path transform="translate(30.8 69) rotate(-27.05)" d="M0 0C15.42 -4.98 29.37 -4.58 36.72 0C30.11 7.59 16.16 8.25 0 0Z" fill="#000" stroke="#000" stroke-width="1.8" stroke-linejoin="round"/></mask><mask id="f1" maskUnits="userSpaceOnUse" x="0" y="0" width="313" height="113"><rect width="313" height="113" fill="#fff"/><path transform="translate(26.6 67.5) rotate(-89.65)" d="M0 0C13.65 -7.19 26.00 -6.61 32.50 0C26.65 6.61 14.30 7.19 0 0Z" fill="#000" stroke="#000" stroke-width="1.8" stroke-linejoin="round"/><path transform="translate(30.8 69) rotate(-27.05)" d="M0 0C15.42 -4.98 29.37 -4.58 36.72 0C30.11 7.59 16.16 8.25 0 0Z" fill="#000" stroke="#000" stroke-width="1.8" stroke-linejoin="round"/></mask><mask id="f0" maskUnits="userSpaceOnUse" x="0" y="0" width="313" height="113"><rect width="313" height="113" fill="#fff"/><path transform="translate(30.8 69) rotate(-27.05)" d="M0 0C15.42 -4.98 29.37 -4.58 36.72 0C30.11 7.59 16.16 8.25 0 0Z" fill="#000" stroke="#000" stroke-width="1.8" stroke-linejoin="round"/></mask></defs><g mask="url(#f3)"><path fill="#C86F55" transform="translate(27.5 72.3) rotate(7.26)" d="M0 0C15.62 -5.33 29.76 -4.91 37.20 0C30.50 9.91 16.37 10.77 0 0Z"/></g><g mask="url(#f1)"><path fill="#C86F55" transform="translate(29 68.5) rotate(-55.92)" d="M0 0C23.83 -10.18 45.40 -9.36 56.75 0C46.53 6.51 24.97 7.07 0 0Z"/></g><g mask="url(#f0)"><path fill="#A8553E" transform="translate(26.6 67.5) rotate(-89.65)" d="M0 0C13.65 -7.19 26.00 -6.61 32.50 0C26.65 6.61 14.30 7.19 0 0Z"/></g><path fill="#8FA89C" transform="translate(30.8 69) rotate(-27.05)" d="M0 0C15.42 -4.98 29.37 -4.58 36.72 0C30.11 7.59 16.16 8.25 0 0Z"/></svg>
